<?xml version="1.0" encoding="UTF-8"?>
<svg id="Layer_2" xmlns="http://www.w3.org/2000/svg" version="1.1" viewBox="0 0 24 24">
  <!-- Generator: Adobe Illustrator 30.0.0, SVG Export Plug-In . SVG Version: 2.1.1 Build 123)  -->
  <defs>
    <style>
      .st0 {
        fill: #fff;
        font-family: e-Ukraine-Medium, e-Ukraine;
        font-size: 3.46px;
        font-weight: 500;
      }

      .st1 {
        stroke-width: .36px;
      }

      .st1, .st2 {
        stroke: #efb1b4;
        stroke-miterlimit: 10;
      }

      .st1, .st2, .st3 {
        fill: #efb1b4;
      }

      .st2 {
        stroke-width: .23px;
      }
    </style>
  </defs>
  <text class="st0" transform="translate(4.47 12.91)"><tspan x="0" y="0">FEEL UP</tspan></text>
  <path class="st1" d="M11.99,22.93c-1.48,0-2.92-.29-4.28-.86-1.31-.55-2.48-1.35-3.49-2.35s-1.8-2.18-2.35-3.49c-.57-1.35-.86-2.79-.86-4.28s.29-2.92.86-4.28c.55-1.31,1.35-2.48,2.35-3.49,1.01-1.01,2.18-1.8,3.49-2.35,1.35-.57,2.79-.86,4.28-.86v.27c-1.45,0-2.85.28-4.17.84-1.28.54-2.42,1.31-3.41,2.3s-1.76,2.13-2.3,3.41c-.56,1.32-.84,2.72-.84,4.17s.28,2.85.84,4.17c.54,1.28,1.31,2.42,2.3,3.41.98.98,2.13,1.76,3.41,2.3,1.32.56,2.72.84,4.17.84s2.85-.28,4.17-.84c1.28-.54,2.42-1.31,3.41-2.3.98-.98,1.76-2.13,2.3-3.41.56-1.32.84-2.72.84-4.17h.27c0,1.48-.29,2.92-.86,4.28-.55,1.31-1.35,2.48-2.35,3.49s-2.18,1.8-3.49,2.35c-1.35.57-2.79.86-4.28.86Z"/>
  <path class="st2" d="M17.12,15.73c-.09,0-.17,0-.26-.02-.85-.12-1.64-.84-2.17-1.97-.51-1.09-.71-2.4-.54-3.59.16-1.17.65-2.18,1.37-2.84.7-.65,1.58-.93,2.47-.81.9.13,1.75.65,2.33,1.43.63.85.89,1.95.72,3.1l-.14-.02.14.02c-.17,1.17-.74,2.42-1.53,3.34-.75.87-1.61,1.36-2.4,1.36ZM17.59,6.75c-.68,0-1.34.26-1.88.76-.67.62-1.13,1.57-1.29,2.67-.16,1.14.03,2.39.52,3.44.49,1.05,1.2,1.71,1.96,1.81.76.11,1.63-.35,2.41-1.24.76-.88,1.31-2.08,1.47-3.2.15-1.07-.09-2.1-.67-2.9-.53-.72-1.31-1.2-2.15-1.32-.12-.02-.25-.03-.37-.03Z"/>
  <path class="st3" d="M16.79,16.41c-.25,0-.63-.02-.66-.04l-.02-.03c-.07-.18-.05-.38.04-.58.07-.15.17-.25.17-.25l.03-.03s.25.05.27.05h.05c.24,0,.27.05.27.05.26.48.12.78.09.81h0s0,.01,0,.01c-.02,0-.12.01-.23.01ZM16.2,16.29c.12.01.67.04.78.02.02-.05.1-.3-.1-.68-.04,0-.11,0-.19,0-.02.06-.07.12-.09.19-.03.21-.03.49-.03.49h-.08c-.03-.09,0-.34.05-.51.01-.07.02-.14.03-.19-.03,0-.09-.01-.19-.03-.06.07-.3.38-.19.71ZM16.2,16.31s0,0,0,0h0s0,0,0,0Z"/>
  <path class="st3" d="M6.34,18.58v-.09c.23,0,.87-.25,1.12-.87.25-.62,1.3-.77,1.46-.77,0,0,0,0,.01,0,.31-.08.81.04,1.49.36.45.21.91.48.95.53h0c.37.29,1.18.32,1.3.31h0c.21-.07.38-.14.52-.22-.12-.08-.21-.17-.27-.28h0s-.01-.03-.02-.04c-.1-.13-.38-.49-.32-.82,0-.06.03-.67.6-.75h.01s0,0,0,0c0,0,0,0,0,0,.6,0,.68.63.69.91.02.05.02.17,0,.3-.05.2-.18.44-.51.66.31.15,1.45.22,1.46.22.87-.25,1.27-.68,1.45-1,.2-.35.19-.64.19-.64h.09s0,.31-.2.68c-.19.34-.61.79-1.52,1.05,0,0-1.24-.09-1.57-.26-.15.09-.34.18-.58.25-.09.04-1.07.01-1.41-.33-.15-.11-1.71-1.04-2.37-.85h-.13c-.29.05-1.07.22-1.27.71-.26.65-.93.92-1.21.92ZM13.02,17.5c.05.1.15.19.28.27.26-.16.39-.33.46-.47.11-.22.08-.38.07-.42h0s0-.02,0-.02c-.02-.53-.23-.83-.6-.83,0,0,0,0,0,0,0,0,0,0,0,0-.51.07-.52.65-.52.66h0c-.06.3.21.65.3.76.02.02.03.04.04.05h0Z"/>
</svg>