<?xml version="1.0" encoding="UTF-8"?>
<svg id="Layer_1" xmlns="http://www.w3.org/2000/svg" version="1.1" viewBox="0 0 24 24">
  <!-- Generator: Adobe Illustrator 30.0.0, SVG Export Plug-In . SVG Version: 2.1.1 Build 123)  -->
  <defs>
    <style>
      .st0 {
        fill: #4b2d8d;
      }

      .st1 {
        fill: #e1e5eb;
      }
    </style>
  </defs>
  <rect class="st0" x=".55" y=".3" width="22.89" height="23.39" rx="4.78" ry="4.78"/>
  <rect class="st1" x="3.77" y="5.8" width="8.68" height=".26" transform="translate(-1.69 3.72) rotate(-23.47)"/>
  <rect class="st1" x="15.91" y="1.5" width=".26" height="8.86" transform="translate(4.34 18.4) rotate(-67.11)"/>
  <rect class="st1" x="12.53" y="9.08" width="7.88" height=".26" transform="translate(-2.33 7.6) rotate(-24.31)"/>
  <rect class="st1" x="7.63" y="5.26" width=".26" height="7.97" transform="translate(-3.84 12.55) rotate(-65.9)"/>
  <rect class="st1" x="4.11" y="7.52" width=".26" height="8.72" transform="translate(-.07 .03) rotate(-.34)"/>
  <rect class="st1" x="7.2" y="8.98" width=".26" height="6.65" transform="translate(-6.89 14.03) rotate(-66.15)"/>
  <polygon class="st1" points="12.12 19.94 4.14 16.23 4.24 15.99 12.23 19.7 12.12 19.94"/>
  <rect class="st1" x="11.65" y="17.82" width="8.91" height=".26" transform="translate(-6.05 8.42) rotate(-24.82)"/>
  <rect class="st1" x="19.91" y="7.51" width=".26" height="8.72" transform="translate(-.04 .08) rotate(-.22)"/>
  <rect class="st1" x="12.01" y="15.44" width=".26" height="4.38"/>
  <rect class="st1" x="17.33" y="11.38" width="2.81" height=".26" transform="translate(-3 8.21) rotate(-22.94)"/>
  <path class="st1" d="M14.42,14.48l-.02-2.16,3.16-1.39v2.17s-3.14,1.37-3.14,1.37ZM14.66,12.49l.02,1.59,2.63-1.15v-1.6s-2.65,1.16-2.65,1.16Z"/>
  <rect class="st1" x="13.8" y="13.39" width=".76" height=".26" transform="translate(-3.87 5.9) rotate(-20.75)"/>
  <path class="st1" d="M13.46,12.57c0-.09,0-.2,0-.31,0-.05,0-.09,0-.13,0-.91-.67-1.71-1.44-1.71s-1.36.76-1.36,1.7c0,.03,0,.07,0,.11,0,.13,0,.25,0,.35-.31.04-.54.3-.54.62v1.94c0,.34.28.62.62.62h2.64c.34,0,.62-.28.62-.62v-1.94c0-.32-.24-.58-.54-.62ZM12.29,14.3l.15.67h-.75l.15-.67.02-.08c-.12-.06-.21-.17-.24-.32-.05-.25.11-.48.36-.53.25-.05.48.11.53.36.04.2-.06.4-.24.49l.02.08ZM12.69,11.23c.19.23.32.54.32.91,0,.04,0,.09,0,.14,0,.08,0,.2,0,.3h-1.91c0-.11,0-.24,0-.34,0-.04,0-.08,0-.12,0-.69.41-1.25.91-1.25.24,0,.49.14.68.36"/>
</svg>